<svg width="45" height="45" fill="none" xmlns="http://www.w3.org/2000/svg"><path d="M40.46 29.98l3.078-3.11c1.95-1.969 1.95-5.172 0-7.142a4.986 4.986 0 00-2.083-1.263 5.048 5.048 0 00.967-2.987c0-1.349-.52-2.617-1.465-3.57a4.94 4.94 0 00-3.702-1.477 5.067 5.067 0 00-1.46-3.738 4.96 4.96 0 00-3.7-1.474 5.042 5.042 0 00-1.462-3.74 4.97 4.97 0 00-7.069 0L22.5 2.554 21.436 1.48A4.94 4.94 0 0017.901 0c-1.335 0-2.59.525-3.535 1.479a5.063 5.063 0 00-1.457 3.74 4.944 4.944 0 00-3.704 1.475 5.065 5.065 0 00-1.458 3.738c-.057-.002-.113-.004-.17-.004a4.94 4.94 0 00-3.534 1.48 5.042 5.042 0 00-1.465 3.57c0 1.09.34 2.126.967 2.986a4.966 4.966 0 00-2.084 1.264c-1.944 1.965-1.948 5.158-.013 7.128l.015.015 3.083 3.114a5.071 5.071 0 00.603.524l-.912.92c-.887.896-1.338 2.117-1.271 3.437a5.211 5.211 0 001.52 3.4L9.7 43.535A4.922 4.922 0 0013.21 45a4.92 4.92 0 003.508-1.466l2.424-2.448a15.862 15.862 0 006.718 0l2.423 2.448A4.922 4.922 0 0031.791 45c1.27 0 2.541-.489 3.508-1.466l5.215-5.267c1.935-1.954 2.154-4.912.49-6.594l-1.11-1.121.547-.554.018-.018zM16.273 3.406a2.274 2.274 0 011.627-.68c.615 0 1.192.241 1.627.68l4.13 4.171a2.344 2.344 0 010 3.288 2.275 2.275 0 01-1.627.68 2.275 2.275 0 01-1.63-.682l-4.126-4.169-.01-.01a2.344 2.344 0 01.01-3.278zm-5.168 8.495a2.344 2.344 0 01.006-3.28 2.277 2.277 0 011.628-.681 2.273 2.273 0 011.626.68l.004.005 4.125 4.166.008.008 1.025 1.035c.434.44.674 1.023.674 1.644 0 .62-.24 1.205-.674 1.643a2.274 2.274 0 01-1.627.681 2.273 2.273 0 01-1.643-.697l-1.012-1.022a.047.047 0 01-.004-.005l-4.13-4.17-.006-.007zM5.95 13.834a2.273 2.273 0 011.626-.68c.615 0 1.193.242 1.627.68l4.134 4.177a2.343 2.343 0 01-.004 3.282 2.276 2.276 0 01-1.627.68 2.273 2.273 0 01-1.627-.68l-.016-.016-4.1-4.142-.013-.014a2.32 2.32 0 01-.674-1.643c0-.62.24-1.204.674-1.644zM3.383 24.957a2.343 2.343 0 01-.014-3.3 2.275 2.275 0 011.628-.682c.614 0 1.192.242 1.627.681l3.097 3.128c.897.906.897 2.38 0 3.287a2.274 2.274 0 01-1.627.68c-.113 0-.224-.008-.334-.024l-.025-.004a2.275 2.275 0 01-1.258-.642l-.01-.011-3.084-3.113zm15.685 13.31l-.035-.006a1.38 1.38 0 00-.08-.018l-.06-.009-.068-.007a.94.94 0 00-.128-.004c-.026 0-.05.002-.076.004-.018.001-.036.002-.054.005a1.287 1.287 0 00-.26.056l-.058.02a1.328 1.328 0 00-.235.117l-.058.037a1.283 1.283 0 00-.166.137l-.024.022-2.956 2.986a2.25 2.25 0 01-3.202 0L6.394 36.34a2.48 2.48 0 01-.734-1.613c-.027-.54.145-1.026.485-1.37l1.863-1.882.086.002c1.335 0 2.59-.525 3.535-1.479 1.445-1.46 1.818-3.598 1.12-5.41.937-.2 1.8-.667 2.493-1.368a5.044 5.044 0 001.41-2.851c.404.104.822.159 1.25.159 1.334 0 2.59-.525 3.534-1.48a5.043 5.043 0 001.464-3.57c0-.43-.053-.852-.156-1.259a4.939 4.939 0 002.821-1.428c1.95-1.968 1.95-5.171 0-7.14l-1.157-1.17 1.064-1.075a2.288 2.288 0 013.254 0 2.32 2.32 0 01.674 1.643c0 .621-.24 1.205-.674 1.644a1.366 1.366 0 00-.395.964c0 .348.131.697.395.963a1.34 1.34 0 001.908 0 2.288 2.288 0 013.254 0 2.344 2.344 0 010 3.287 1.366 1.366 0 00-.396.964c0 .349.132.697.396.963a1.34 1.34 0 001.907 0 2.277 2.277 0 011.628-.68c.614 0 1.192.241 1.627.68.434.44.674 1.023.674 1.644a2.32 2.32 0 01-.657 1.626l-.018.018-1.935 1.954a1.373 1.373 0 00-.11 1.802l.07.09a1.34 1.34 0 001.754.333 2.28 2.28 0 012.803.354 2.344 2.344 0 010 3.287l-3.097 3.128-.018.018-6.646 6.714a13.21 13.21 0 01-12.802 3.466zm20.028-4.666c.592.598.363 1.877-.49 2.739l-5.214 5.267a2.25 2.25 0 01-3.201 0l-1.435-1.45a15.962 15.962 0 005.022-3.427l4.208-4.251 1.11 1.122z" fill="#C11F3A"/></svg>