<svg width="17" height="20" fill="none" xmlns="http://www.w3.org/2000/svg"><path d="M9.864 13.285a.58.58 0 00.399-.558v-.2h-2.79v.2a.58.58 0 00.398.558c.06.02.12.04.2.04h1.593c.08 0 .14-.02.2-.04zm-5.182-3.15h8.571c.338 0 .598.26.598.599v.797c0 .339-.26.598-.598.598H4.482a.587.587 0 01-.598-.598v-.598a.8.8 0 01.798-.797zm7.554-1.116c-.1.34-.478.718-.837.718H6.256c-.1 0-.578-.04-.817-.718L4.064 3.857c-.06-.299-.12-1.116.458-1.814.498-.598 1.395-.957 2.571-1.036.18-.04.36-.04.539-.04h2.79c.2 0 .399 0 .578.02h.02c1.256.12 1.914.618 2.253 1.056.458.598.498 1.316.378 1.794l-1.415 5.182zm2.512-1.255c.02-.06.06-.12.1-.18.298-.398 1.135-.239 1.574-.239.319 0 .578.26.578.578 0 .359-.26.618-.578.618h-1.017v2.791h-.797s0-2.83.02-3.09c.02-.16.04-.339.12-.478zM1.313 7.345c.458 0 1.276-.16 1.575.24.04.06.08.119.1.179.06.16.1.319.1.498.039.24.039 3.07.039 3.07H2.33V8.54H1.313c-.319 0-.578-.259-.578-.618 0-.319.26-.578.578-.578zM4.841 17.67c-.12 0-.239.02-.359.06.36-.917 1.296-1.654 3.389-1.834.14-.02.259-.02.398-.04v-2.132h1.196v2.132c.14 0 .28.02.4.02 2.43.18 3.388 1.097 3.766 1.814-.08-.02-.14-.02-.219-.02-.2 0-.399.06-.578.18-.319-.479-1.096-1.037-2.97-1.176-.12 0-.259-.02-.399-.02v1.196a1.05 1.05 0 00-.598-.18.94.94 0 00-.598.2v-1.196c-.139 0-.279.02-.398.02-1.575.14-2.253.598-2.552 1.096a1.054 1.054 0 00-.478-.12zm3.528.638c.12-.14.3-.24.498-.24.16 0 .28.06.4.14.159.12.258.3.258.499v.04a.664.664 0 01-.658.657.664.664 0 01-.657-.657v-.04c0-.16.06-.3.16-.399zm-4.046 0c.12-.14.299-.24.498-.24.16 0 .28.06.399.14.16.12.259.3.259.499v.04a.664.664 0 01-.658.657.664.664 0 01-.658-.657v-.04c.02-.16.08-.3.16-.399zm8.57 0c.12-.14.3-.24.5-.24.159 0 .278.06.398.14.16.12.259.3.259.499v.04a.664.664 0 01-.658.657.664.664 0 01-.658-.657v-.04c.02-.16.08-.3.16-.399z" fill="#C11F3A"/></svg>