<svg xmlns="http://www.w3.org/2000/svg" width="15" height="12" fill="none"><path fill="#C11F3A" d="M14.022 5.092V2.5c0-1.379-1.097-2.5-2.446-2.5H3.424C2.075 0 .978 1.121.978 2.5v2.592A1.496 1.496 0 000 6.5v3c0 .276.22.5.49.5h.488v1.5c0 .276.22.5.49.5h1.956c.27 0 .49-.224.49-.5V10h7.173v1.5c0 .276.219.5.49.5h1.956c.27 0 .489-.224.489-.5V10h.489c.27 0 .489-.224.489-.5v-3c0-.651-.41-1.2-.978-1.408zM2.935 4.5c0-.827.658-1.5 1.467-1.5h2.12c.377 0 .718.15.978.39.26-.24.601-.39.978-.39h2.12c.809 0 1.467.673 1.467 1.5V5h-.978v-.5c0-.276-.22-.5-.49-.5H8.479a.495.495 0 00-.489.5V5h-.978v-.5c0-.276-.22-.5-.49-.5H4.403a.495.495 0 00-.489.5V5h-.978v-.5zM14.022 7H.978v-.5c0-.276.22-.5.49-.5h12.065c.27 0 .489.224.489.5V7z"/></svg>