<svg xmlns="http://www.w3.org/2000/svg" width="31" height="30" fill="none"><circle cx="23.3" cy="26.1" r="2.5" stroke="#C11F3A" stroke-width="2"/><circle cx="13" cy="26.1" r="2.5" stroke="#C11F3A" stroke-width="2"/><path fill="#C11F3A" fill-rule="evenodd" d="M4.5 2H1a1 1 0 110-2h3.5c1.221 0 3.017 1.021 3.486 3.836.032.19.068.413.107.664H29.5a1 1 0 01.956 1.294c-.665 2.16-2.103 6.808-2.507 8.022-.315.945-1.03 1.495-1.683 1.793A4.431 4.431 0 0124.5 16H9.735l.251 1.83c.059.266.235.7.562 1.055.314.342.765.615 1.452.615h14.5a1 1 0 110 2H12c-1.313 0-2.28-.56-2.923-1.26a4.42 4.42 0 01-1.058-2.044l-.006-.03-.004-.03c-.112-.822-.254-1.859-.412-2.999a928.547 928.547 0 00-1.35-9.488 104.43 104.43 0 00-.233-1.485C5.683 2.18 4.612 2 4.5 2zm4.959 12H24.5c.214 0 .593-.053.934-.21.33-.15.532-.351.617-.606.328-.984 1.368-4.331 2.094-6.684H8.395c.316 2.151.716 4.998 1.064 7.5z" clip-rule="evenodd"/></svg>