<svg width="20" height="20" fill="none" xmlns="http://www.w3.org/2000/svg"><path opacity=".6" d="M11.59 5v1.59m0 1.59V6.59m0 0H10m1.59 0h1.59" stroke="#7C7C7C" stroke-width=".795"/><circle cx="15.104" cy="16.918" r="1.621" stroke="#A8A8A9" stroke-width="1.296"/><circle cx="8.427" cy="16.918" r="1.621" stroke="#A8A8A9" stroke-width="1.296"/><path fill-rule="evenodd" clip-rule="evenodd" d="M2.917 1.296H.648A.648.648 0 01.648 0h2.269c.791 0 1.956.662 2.26 2.486l.07.431h13.875c.436 0 .748.422.62.839a436.55 436.55 0 01-1.625 5.2c-.204.612-.668.969-1.09 1.162a2.89 2.89 0 01-1.146.253h-9.57l.162 1.187c.038.172.152.453.365.684.203.221.496.398.94.398h9.4a.648.648 0 110 1.297h-9.4a2.508 2.508 0 01-1.894-.817 2.865 2.865 0 01-.686-1.325l-.004-.02-.002-.02-.267-1.943a622.59 622.59 0 00-.876-6.15 67.67 67.67 0 00-.15-.963c-.215-1.287-.91-1.403-.982-1.403zm3.214 7.779h9.75c.14 0 .385-.035.606-.136.214-.098.345-.228.4-.393.212-.638.886-2.807 1.357-4.333H5.441c.205 1.395.465 3.24.69 4.862z" fill="#A8A8A9"/></svg>