<svg xmlns="http://www.w3.org/2000/svg" width="15" height="16" fill="none"><path fill="#C11F3A" d="M14.726 5.732h-1.712c-.34 0-.62.2-.62.445v4.708c0-.95-1.389-1.72-3.103-1.72H5.503c-1.715 0-3.105.77-3.105 1.72V6.177c0-.245-.278-.446-.62-.446H.068c-.037 0-.067.2-.067.446 0 .245.279.445.62.445h.134c.341 0 .62.279.62.619v8.14c0 .342.23.619.512.619.282 0 .512-.277.512-.618v-3.636h9.996v3.636c0 .34.23.618.512.618.282 0 .513-.277.513-.618V7.24c0-.34.278-.62.62-.62h.133c.341 0 .62-.198.62-.444 0-.245-.03-.445-.066-.445z"/><path fill="#C11F3A" d="M5.53 8.66h3.79c.857 0 1.632.193 2.193.504h.417V7.06c0-1.843 0-7.061-3.96-7.061H6.824c-3.96 0-3.96 5.22-3.96 7.061v2.103h.474c.562-.311 1.338-.503 2.193-.503zm2.902-6.21c0-.17.07-.309.156-.309s.155.14.155.31v4.26c0 .172-.07.311-.155.311-.086 0-.156-.14-.156-.31V2.45zm-1.192 0c0-.17.07-.309.156-.309s.155.14.155.31v4.26c0 .172-.07.311-.155.311-.087 0-.156-.14-.156-.31V2.45zm-1.19 0c0-.17.069-.309.154-.309.086 0 .155.14.155.31v4.26c0 .172-.069.311-.155.311s-.155-.14-.155-.31V2.45z"/></svg>