<svg xmlns="http://www.w3.org/2000/svg" width="19" height="22" fill="none"><path fill="#C11F3A" d="M1.02 2.75h2.063V.687C3.083.308 3.39 0 3.77 0h12.375c1.137 0 2.063.925 2.063 2.063V19.25a2.753 2.753 0 01-2.75 2.75H1.02a.688.688 0 01-.687-.688V3.438c0-.379.308-.687.687-.687zm3.438 14.438c0 .379.308.687.687.687h8.25c.38 0 .688-.308.688-.688v-1.375a3.441 3.441 0 00-3.438-3.437h-2.75a3.44 3.44 0 00-3.437 3.438v1.374zM12.02 8.25A2.753 2.753 0 009.27 5.5a2.753 2.753 0 00-2.75 2.75A2.753 2.753 0 009.27 11a2.753 2.753 0 002.75-2.75zm-7.562-5.5h11.687a.688.688 0 000-1.375H4.458V2.75z"/></svg>