<svg width="45" height="43" fill="none" xmlns="http://www.w3.org/2000/svg"><path d="M43.682 3.104h-5.775a56.4 56.4 0 00.033-1.844c0-.696-.59-1.26-1.32-1.26H8.38c-.73 0-1.32.564-1.32 1.26 0 .618.012 1.232.033 1.844H1.318C.59 3.104 0 3.667 0 4.364c0 5.644 1.544 10.97 4.347 14.995 2.771 3.98 6.462 6.263 10.45 6.485.903.94 1.859 1.706 2.854 2.29v5.6H15.44c-2.674 0-4.85 2.078-4.85 4.633v2.113h-.093c-.728 0-1.318.565-1.318 1.26 0 .696.59 1.26 1.318 1.26h24.006c.728 0 1.318-.564 1.318-1.26 0-.695-.59-1.26-1.318-1.26h-.094v-2.113c0-2.555-2.175-4.633-4.849-4.633h-2.21v-5.6c.995-.584 1.95-1.35 2.855-2.29 3.987-.222 7.678-2.505 10.45-6.485C43.455 15.333 45 10.008 45 4.363c0-.696-.59-1.26-1.318-1.26zm-37.14 14.86c-2.312-3.32-3.67-7.664-3.877-12.34H7.24c.476 5.749 1.888 11.063 4.096 15.282.351.672.72 1.307 1.1 1.905-2.192-.792-4.222-2.446-5.894-4.847zm25.23 20.403v2.114H13.229v-2.114c0-1.165.992-2.114 2.212-2.114h14.12c1.22 0 2.213.949 2.213 2.114zm-7.06-4.633h-4.424v-4.505a9.039 9.039 0 002.212.278c.749 0 1.487-.095 2.212-.278v4.505zm.817-7.502c-.06.024-.117.052-.171.083-.932.443-1.89.672-2.858.672-.968 0-1.925-.23-2.856-.671a1.357 1.357 0 00-.173-.084c-1.034-.523-2.034-1.311-2.98-2.348a1.294 1.294 0 00-.168-.187c-.939-1.066-1.822-2.376-2.629-3.918-2.423-4.63-3.822-10.718-3.981-17.26h25.574c-.16 6.542-1.559 12.63-3.981 17.26-.807 1.542-1.69 2.852-2.629 3.918-.062.057-.12.12-.168.188-.946 1.036-1.947 1.825-2.98 2.347zm12.929-8.268c-1.672 2.401-3.702 4.055-5.895 4.847.382-.598.75-1.233 1.101-1.905 2.208-4.219 3.62-9.533 4.096-15.283h4.576c-.208 4.677-1.566 9.02-3.878 12.34z" fill="#C11F3A"/></svg>