<svg xmlns="http://www.w3.org/2000/svg" width="14" height="16" fill="none"><path fill="#C11F3A" d="M13.895 1.684V.842A.842.842 0 0013.053 0H.843A.842.842 0 000 .842v.842h13.895zm-7.369.842H.842v8h5.684v-8zM5.263 7.58a.421.421 0 01-.42-.421V6.105a.421.421 0 01.841 0v1.053a.421.421 0 01-.42.42zm1.263 3.788H.842v2.316a1.263 1.263 0 001.263 1.263v.21a.842.842 0 001.684 0v-.21h2.737v-3.579zm-1.263 1.685a.422.422 0 110-.843.422.422 0 010 .843zm7.79-10.527H7.368v8h5.685v-8zM8.632 7.58a.421.421 0 01-.421-.421V6.105a.421.421 0 01.842 0v1.053a.421.421 0 01-.421.42zm-1.264 3.788v3.58h2.737v.21a.842.842 0 001.684 0v-.21a1.263 1.263 0 001.264-1.264v-2.316H7.368zm1.264 1.685a.422.422 0 110-.843.422.422 0 010 .843z"/></svg>