<svg xmlns="http://www.w3.org/2000/svg" width="32" height="48" fill="none"><path fill="#C11F3A" d="M32 31.531c0-4.399-1.664-8.534-4.686-11.645-4.62-4.755-6.164-11.66-4.03-18.02.144-.43.077-.905-.179-1.276A1.355 1.355 0 0021.992 0h-.138c-5.595 0-10.147 4.685-10.147 10.444v9.037c0 .885-.7 1.606-1.56 1.606-.86 0-1.561-.72-1.561-1.606a1.41 1.41 0 00-.755-1.258 1.335 1.335 0 00-1.432.133 16.509 16.509 0 00-4.656 5.693A16.685 16.685 0 000 31.532c0 9.002 7.055 16.34 15.773 16.465.072.002.146.003.22.003H16c.077 0 .153-.001.229-.003C24.946 47.87 32 40.533 32 31.531zM20.392 43.315a6.083 6.083 0 01-8.783 0 6.447 6.447 0 01-1.82-4.52 6.44 6.44 0 011.82-4.52L16 29.755l4.392 4.52c2.421 2.492 2.421 6.548 0 9.04zm3.93-1.157c1.255-3.304.59-7.208-1.998-9.872l-5.358-5.515A1.346 1.346 0 0016 26.36c-.362 0-.71.148-.966.412l-5.358 5.515c-1.689 1.739-2.62 4.05-2.62 6.509 0 1.166.21 2.3.611 3.354-3.008-2.505-4.935-6.334-4.935-10.618 0-3.66 1.379-7.068 3.837-9.61.77 1.191 2.086 1.978 3.577 1.978 2.367 0 4.293-1.982 4.293-4.418v-9.037c0-3.595 2.427-6.617 5.684-7.422a20.88 20.88 0 00-.036 8.923 20.347 20.347 0 005.295 9.93c2.505 2.58 3.885 6.009 3.885 9.657 0 4.288-1.93 8.12-4.944 10.626z"/></svg>