<svg xmlns="http://www.w3.org/2000/svg" width="13" height="17" fill="none"><path fill="#C11F3A" d="M.076 11.723c1.613-1.681 1.613-4.981 0-6.662-.061-.064-.083-.183-.066-.271a3.835 3.835 0 011.394-2.306.251.251 0 01.246-.037c.912.35 1.66.345 2.222-.014C4.78 1.852 4.94.516 4.942.503a.27.27 0 01.161-.221 3.6 3.6 0 012.794 0 .27.27 0 01.161.22c.002.014.162 1.35 1.07 1.93.562.36 1.31.365 2.222.015a.251.251 0 01.246.037 3.854 3.854 0 011.399 2.332.279.279 0 01-.071.245c-1.613 1.68-1.613 4.98 0 6.662.061.064.083.182.066.271a3.835 3.835 0 01-1.394 2.305.253.253 0 01-.242.039c-.138-.05-3.41-1.196-4.615 1.747a.26.26 0 01-.24.165.26.26 0 01-.238-.165c-1.204-2.943-4.476-1.797-4.615-1.747a.253.253 0 01-.242-.039 3.855 3.855 0 01-1.399-2.331.279.279 0 01.071-.245zM11.79 4.768a.28.28 0 00.035-.268 2.746 2.746 0 00-.451-.76.252.252 0 00-.258-.084c-.207.053-.411.09-.606.112a.268.268 0 00-.23.298.263.263 0 00.285.241 4.67 4.67 0 00.514-.086c.079.109.147.225.205.348a5.857 5.857 0 00-.287.46.278.278 0 00.094.37.252.252 0 00.13.038.26.26 0 00.226-.135c.104-.186.22-.366.343-.534zm-1.3 8.277c.207.024.414.06.617.105a.255.255 0 00.248-.085c.199-.231.356-.494.47-.782a.28.28 0 00-.035-.268 5.178 5.178 0 01-.343-.534.254.254 0 00-.356-.097.277.277 0 00-.093.37c.088.159.185.313.286.46a2.19 2.19 0 01-.223.373 6.888 6.888 0 00-.511-.08.262.262 0 00-.288.237.269.269 0 00.228.3zm-.294-3.904c.042.419.12.832.232 1.228a.262.262 0 00.25.194.25.25 0 00.073-.01.273.273 0 00.176-.337 6.577 6.577 0 01-.214-1.132.262.262 0 00-.286-.24.268.268 0 00-.231.297zm.231-1.2h.028a.265.265 0 00.258-.242c.04-.387.111-.767.214-1.131a.273.273 0 00-.176-.337.258.258 0 00-.323.184 7.19 7.19 0 00-.232 1.227.269.269 0 00.231.298zm-2.523 5.131a.261.261 0 00.247.186.245.245 0 00.081-.014 4.503 4.503 0 011.007-.217.268.268 0 00.234-.296.262.262 0 00-.284-.243c-.392.04-.768.12-1.12.242a.274.274 0 00-.165.342zm-.06-9.612c.339.315.726.548 1.151.693a.255.255 0 00.328-.174.274.274 0 00-.167-.342 2.685 2.685 0 01-.965-.58.252.252 0 00-.367.02.28.28 0 00.02.383zM5.856 13.822a3.9 3.9 0 01.46.413.252.252 0 00.369 0c.143-.15.298-.29.46-.413a.279.279 0 00.058-.378.254.254 0 00-.364-.06 4.44 4.44 0 00-.338.286 4.453 4.453 0 00-.338-.286.254.254 0 00-.364.06.279.279 0 00.057.378zM5.737 2.27c.13.064.284.006.346-.13.074-.162.14-.33.196-.501a2.19 2.19 0 01.442 0c.056.171.122.34.196.502a.26.26 0 00.235.155.252.252 0 00.111-.026.276.276 0 00.124-.361 4.467 4.467 0 01-.22-.595.264.264 0 00-.205-.188 2.642 2.642 0 00-.924 0 .264.264 0 00-.204.188c-.06.204-.134.404-.221.595a.276.276 0 00.124.36zm-.562.809a.252.252 0 00-.367-.022c-.284.264-.61.46-.966.58a.273.273 0 00-.166.343.261.261 0 00.247.187.254.254 0 00.08-.014 3.2 3.2 0 001.151-.691.28.28 0 00.021-.383zM3.76 13.027c.353.036.692.109 1.007.217.027.01.055.014.081.014a.26.26 0 00.247-.186.274.274 0 00-.165-.342 4.989 4.989 0 00-1.12-.242.262.262 0 00-.284.243.268.268 0 00.234.296zM2.49 3.768a4.306 4.306 0 01-.605-.113.253.253 0 00-.259.085c-.19.226-.341.482-.45.76a.28.28 0 00.034.268c.123.168.239.348.343.534a.258.258 0 00.225.135c.044 0 .09-.012.13-.037a.278.278 0 00.094-.37 5.883 5.883 0 00-.286-.461 2.17 2.17 0 01.205-.348c.175.039.347.068.514.086a.264.264 0 00.286-.24.269.269 0 00-.231-.299zm.314 3.875a7.187 7.187 0 00-.232-1.228.26.26 0 00-.323-.184.273.273 0 00-.176.337c.103.364.175.745.214 1.131a.265.265 0 00.286.241.269.269 0 00.231-.297zm-.231 1.2a.263.263 0 00-.286.241 6.6 6.6 0 01-.214 1.132.273.273 0 00.176.336.231.231 0 00.073.011.262.262 0 00.25-.194 7.14 7.14 0 00.232-1.228.269.269 0 00-.231-.298zm-1.398 3.44c.113.288.271.55.47.783a.255.255 0 00.248.084c.203-.045.41-.08.617-.105a.269.269 0 00.228-.3.262.262 0 00-.288-.238c-.17.02-.342.047-.51.08a2.198 2.198 0 01-.224-.373 5.92 5.92 0 00.286-.46.277.277 0 00-.093-.37.254.254 0 00-.356.097c-.104.187-.22.367-.343.534a.28.28 0 00-.035.268z"/></svg>