<svg xmlns="http://www.w3.org/2000/svg" width="21" height="27" fill="none"><path fill="#C11F3A" d="M10.104.784c5.571 0 10.104 4.532 10.104 10.104 0 3.133-1.621 6.773-4.819 10.817-2.34 2.959-4.646 5.005-4.743 5.09a.82.82 0 01-1.084 0c-.097-.086-2.403-2.131-4.743-5.09C1.62 17.66 0 14.02 0 10.888 0 5.316 4.532.784 10.104.784zM14.61 15.12v-3.514c0-.219.256-.337.422-.195l.274.235a.82.82 0 101.066-1.245l-5.735-4.915a.82.82 0 00-1.066 0l-5.735 4.915a.82.82 0 101.066 1.245l.273-.235a.256.256 0 01.423.195v3.514a.82.82 0 00.82.819h7.372a.82.82 0 00.82-.82z"/><path fill="#C11F3A" d="M12.971 9.764v4.282a.256.256 0 01-.256.256H7.493a.256.256 0 01-.256-.256V9.764c0-.075.032-.146.089-.195l2.611-2.238a.256.256 0 01.334 0l2.61 2.238c.058.049.09.12.09.195z"/></svg>