<svg xmlns="http://www.w3.org/2000/svg" width="33" height="44" fill="none"><path fill="#C11F3A" d="M24.753 14.632a1.267 1.267 0 00-.411-2.274l7.064-7.065c1.383-1.382 1.203-2.52.973-3.076-.23-.556-.908-1.488-2.864-1.488H3.523C1.568.729.89 1.66.66 2.217c-.23.555-.41 1.694.972 3.076l7.065 7.065a1.267 1.267 0 00-.411 2.274C3.727 17.416.679 22.438.679 28.16.679 36.894 7.785 44 16.519 44c8.735 0 15.84-7.106 15.84-15.84 0-5.722-3.048-10.744-7.606-13.528zm5.062-11.353a2.86 2.86 0 01-.202.222l-8.818 8.818h-6.016l.627-.627 1.2-1.2 7.228-7.228h5.681c.119 0 .218.006.3.015zM16.519 6.993l-3.728-3.729h7.457l-3.729 3.73zM3.224 3.28a2.74 2.74 0 01.3-.015h5.68l5.522 5.522-3.008 3.008-8.293-8.293a2.8 2.8 0 01-.201-.222zm13.295 38.186c-7.336 0-13.305-5.97-13.305-13.306 0-7.336 5.969-13.305 13.305-13.305 7.337 0 13.305 5.97 13.305 13.305 0 7.337-5.968 13.306-13.305 13.306z"/><path fill="#C11F3A" d="M20.013 23.398l-2.357-4.776a1.268 1.268 0 00-2.274 0l-2.357 4.776-5.27.765a1.269 1.269 0 00-.702 2.163l3.813 3.717-.9 5.249a1.268 1.268 0 001.84 1.336l4.713-2.478 4.714 2.478c.185.098.388.146.59.146h.004a1.268 1.268 0 001.234-1.55l-.889-5.18 3.814-3.718a1.268 1.268 0 00-.703-2.163l-5.27-.765zm-.088 5.295c-.299.29-.435.71-.364 1.122l.578 3.374-3.03-1.593a1.268 1.268 0 00-1.18 0l-3.03 1.593.579-3.374a1.27 1.27 0 00-.364-1.122l-2.452-2.39 3.388-.492c.412-.06.77-.32.954-.694l1.515-3.07 1.515 3.07c.185.375.542.634.955.694l3.388.492-2.452 2.39z"/></svg>