<svg xmlns="http://www.w3.org/2000/svg" width="15" height="15" fill="none"><path fill="#C11F3A" d="M.44 6.21h6.62v-.878H3.985a.44.44 0 01-.44-.44V.44a.44.44 0 01.44-.44h7.032a.44.44 0 01.44.44v4.453a.44.44 0 01-.44.439H7.939v.879h6.621a.44.44 0 010 .879h-.468v.879H.908v-.88H.44a.44.44 0 010-.878zm13.652 2.638h-7.91v1.757h7.91V8.848zm0 5.712a.44.44 0 01-.88 0v-.439h-7.03v-2.637h7.91v3.076zm-8.789-.439H1.787v.44a.44.44 0 11-.879 0V8.848h4.395v5.273zm-1.319-3.516a.44.44 0 100 .88.44.44 0 000-.88z"/></svg>