<svg xmlns="http://www.w3.org/2000/svg" width="12" height="17" fill="none"><path fill="#C11F3A" fill-rule="evenodd" d="M1.341 2.205L0 5.435v11.18h6.263V5.435L4.92 2.205H1.34zM8.27 4.918h2.64v-.73a.368.368 0 00-.366-.368h-1.91a.368.368 0 00-.364.369v.73zm-.06.6L7.178 8.004v8.61H12v-8.61l-1.033-2.488H8.21zm2.025 3.457h1.023v4.272h-1.023V8.975zm0 5.184h1.023v1.075h-1.023V14.16zM1.418 1.427h3.427V.479A.478.478 0 004.371 0h-2.48a.478.478 0 00-.474.48v.947zM3.97 6.695h1.328v5.546H3.97V6.695zm0 6.73h1.328v1.397H3.97v-1.397z" clip-rule="evenodd"/></svg>