<svg width="29" height="29" fill="none" xmlns="http://www.w3.org/2000/svg"><path d="M27.792 29c-.31 0-.62-.118-.855-.354l-8.434-8.434a1.207 1.207 0 111.709-1.709l8.434 8.434A1.207 1.207 0 0127.792 29z" fill="#C11F3A"/><path d="M11.781 23.563C5.285 23.563 0 18.276 0 11.78S5.285 0 11.781 0s11.781 5.285 11.781 11.781-5.285 11.781-11.78 11.781zm0-21.146c-5.163 0-9.364 4.201-9.364 9.364 0 5.164 4.201 9.365 9.364 9.365 5.164 0 9.365-4.201 9.365-9.365 0-5.163-4.201-9.364-9.365-9.364z" fill="#C11F3A"/><path fill-rule="evenodd" clip-rule="evenodd" d="M21.333 11.781a9.539 9.539 0 00-9.552-9.552 9.539 9.539 0 00-9.552 9.552 9.539 9.539 0 009.552 9.552 9.539 9.539 0 009.552-9.552zM0 11.781c0 6.496 5.285 11.781 11.781 11.781s11.781-5.285 11.781-11.78C23.563 5.284 18.277 0 11.783 0 5.284 0 0 5.285 0 11.781z" fill="#C11F3A"/></svg>