<svg xmlns="http://www.w3.org/2000/svg" width="16" height="8" fill="none"><path fill="#C11F3A" d="M.53 7.687h1.06a.53.53 0 00.53-.53h11.134c0 .293.238.53.53.53h1.06a.53.53 0 00.531-.53V2.651a.53.53 0 00-.53-.53h-1.06a.53.53 0 00-.53.53v2.915H2.12V2.652a.53.53 0 00-.53-.53H.53A.53.53 0 000 2.65v4.506c0 .293.237.53.53.53z"/><path fill="#C11F3A" d="M6.898 2.916c.192 0 .37.056.524.146V.53a.53.53 0 00-.53-.53H3.181a.53.53 0 00-.53.53v2.537c.16-.094.343-.151.541-.151h3.706zm.524 1.06a.528.528 0 00-.527-.53H3.192a.54.54 0 00-.541.53v1.06h4.771v-1.06zm4.778-1.06c.191 0 .37.056.524.146V.53a.53.53 0 00-.53-.53H8.483a.53.53 0 00-.53.53v2.537c.159-.094.343-.151.54-.151H12.2zm.524 1.06a.528.528 0 00-.527-.53H8.494a.54.54 0 00-.541.53v1.06h4.771v-1.06z"/></svg>