<svg xmlns="http://www.w3.org/2000/svg" width="16" height="10" fill="none"><path fill="#C11F3A" d="M15.626 0H.374C.167 0 0 .179 0 .399v.821c0 .22.167.4.374.4h.492v7.246a.848.848 0 00-.411.735c0 .22.167.399.374.399h.824c.206 0 .374-.179.374-.399a.844.844 0 00-.413-.736v-1.75h7.293v2.477c0 .22.168.399.374.399h5.347c.206 0 .374-.179.374-.399V1.62h.624c.207 0 .374-.178.374-.399V.4c0-.22-.168-.399-.374-.399zm-1.71 4.51v4.13h-3.84V4.51h3.84zm-3.84-1.18V1.852h3.84V3.33h-3.84zm-8.462-.808v-.903h7.293v.903H1.614z"/></svg>