<svg xmlns="http://www.w3.org/2000/svg" width="25" height="24" fill="none"><path fill="#C11F3A" d="M20.693 3.515A11.922 11.922 0 0012.208 0a11.922 11.922 0 00-8.486 3.515A11.921 11.921 0 00.208 12c0 3.205 1.248 6.219 3.514 8.485A11.922 11.922 0 0012.208 24c3.205 0 6.219-1.248 8.485-3.515A11.921 11.921 0 0024.208 12c0-3.205-1.248-6.219-3.515-8.485zm-8.485 18.13c-5.318 0-9.645-4.327-9.645-9.645v-.043c.024-5.255 4.27-9.53 9.514-9.6l.033-.002.02.001h.078c5.318 0 9.644 4.326 9.644 9.644 0 5.318-4.326 9.645-9.644 9.645z"/><path fill="#C11F3A" d="M19.534 12.58a.71.71 0 110-1.42h.856a8.239 8.239 0 00-7.57-7.362v.745a.71.71 0 11-1.42 0v-.728a8.238 8.238 0 00-7.383 7.443h.767a.71.71 0 110 1.42H4.01a8.238 8.238 0 007.487 7.516v-.9a.71.71 0 111.42 0v.9a8.237 8.237 0 007.494-7.614h-.878zm-4.452-2.45l-2.372 2.372a.71.71 0 01-1.004 0l-4.13-4.13A.71.71 0 118.581 7.37l3.627 3.627 1.87-1.87a.71.71 0 111.004 1.004z"/></svg>