<svg xmlns="http://www.w3.org/2000/svg" width="129" height="39" fill="none"><path fill="#C11F3A" stroke="#C11F3A" d="M94.995 1.018c-.35-.352-.797-.518-1.3-.518H66.912c-.503 0-.95.166-1.3.518l-.014.013-.012.015c-.302.354-.435.793-.435 1.275v3.912c0 .482.174.91.513 1.25.34.343.765.518 1.248.518h8.715a.5.5 0 01.5.5v28.23c0 .483.174.91.513 1.251.34.342.765.518 1.248.518h4.831c.503 0 .95-.166 1.3-.518.34-.341.513-.768.513-1.25V8.501a.5.5 0 01.5-.5h8.663c.503 0 .95-.166 1.3-.518.34-.342.513-.769.513-1.251V2.32c0-.503-.164-.952-.513-1.303zm0 0l-.355.352.355-.352s0 0 0 0zM.935 37.954l.012.015.013.013c.35.352.798.518 1.3.518h26.206c.481 0 .92-.135 1.272-.439l.015-.012.013-.014c.35-.351.513-.8.513-1.304v-3.7c0-.503-.164-.952-.513-1.303-.35-.352-.797-.518-1.3-.518H12.61a.5.5 0 01-.4-.8L28.917 8.121V8.12c.508-.67.784-1.39.784-2.151V2.32c0-.503-.163-.952-.513-1.303-.35-.352-.797-.518-1.3-.518H2.786c-.503 0-.951.166-1.3.518l-.014.013-.012.015c-.302.354-.435.793-.435 1.275v3.65c0 .482.174.909.513 1.25.34.342.765.518 1.248.518h15.248a.5.5 0 01.396.805L1.402 30.704a3.164 3.164 0 00-.15.198c-.072.098-.168.235-.288.407C.63 31.747.5 32.327.5 32.98v3.7c0 .482.133.921.434 1.275zM35.83 1.018l-.013.013-.013.015c-.301.354-.434.793-.434 1.275v34.41c0 .483.173.91.513 1.251.34.342.765.518 1.247.518h23.527c.482 0 .92-.135 1.272-.439l.015-.012.014-.014c.349-.351.512-.8.512-1.304v-3.488c0-.503-.163-.953-.512-1.304-.35-.352-.798-.518-1.3-.518H43.96a.5.5 0 01-.5-.5V23.25a.5.5 0 01.5-.5h15.122c.481 0 .92-.135 1.272-.439l.015-.012.013-.014c.35-.352.513-.8.513-1.304v-3.277c0-.495-.16-.94-.526-1.264-.348-.343-.79-.505-1.287-.505H43.961a.5.5 0 01-.5-.5V8.08a.5.5 0 01.5-.5h16.277c.481 0 .92-.135 1.272-.439l.015-.013.013-.013c.35-.352.513-.8.513-1.304v-3.49c0-.503-.163-.952-.513-1.303v0c-.35-.352-.797-.518-1.3-.518H37.131c-.502 0-.95.166-1.3.518zm57.26 37.017l.013.014.015.012c.32.277.696.439 1.114.439h4.569c.445 0 .856-.102 1.207-.334.352-.232.606-.569.777-.977l.003-.007.003-.008 2.222-5.806a.5.5 0 01.467-.32h14.222c.207 0 .392.127.466.32l2.216 5.788c.105.352.327.652.62.905.367.317.85.439 1.377.439h4.569c.422 0 .792-.166 1.09-.465a1.58 1.58 0 00.46-1.145c0-.226-.017-.45-.078-.633l-.003-.008-.003-.009-12.654-34.087-.001-.003c-.184-.512-.468-.934-.874-1.226-.408-.293-.896-.424-1.434-.424h-5.724c-.564 0-1.073.127-1.487.424-.411.296-.679.726-.827 1.242L92.765 36.24l-.012.033-.007.033-.105.476-.012.054v.054c0 .44.151.834.46 1.145zm22.499-14.738a.5.5 0 01-.469.672h-9.062a.5.5 0 01-.47-.671l4.979-13.704 5.022 13.703z"/></svg>